<svg xmlns="http://www.w3.org/2000/svg" width="1480" height="820" viewBox="0 0 1480 820">
<defs>
<linearGradient id="grad_Quill_Bounded_Dropping_Queue" x1="0" y1="0" x2="0" y2="1"><stop offset="0%" stop-color="#4ade80"/><stop offset="100%" stop-color="#16a34a"/></linearGradient>
<linearGradient id="grad_Quill_Unbounded_Queue" x1="0" y1="0" x2="0" y2="1"><stop offset="0%" stop-color="#86efac"/><stop offset="100%" stop-color="#22c55e"/></linearGradient>
<linearGradient id="grad_fmtlog" x1="0" y1="0" x2="0" y2="1"><stop offset="0%" stop-color="#fdba74"/><stop offset="100%" stop-color="#f97316"/></linearGradient>
<linearGradient id="grad_XTR" x1="0" y1="0" x2="0" y2="1"><stop offset="0%" stop-color="#fde047"/><stop offset="100%" stop-color="#eab308"/></linearGradient>
<linearGradient id="grad_PlatformLab_NanoLog" x1="0" y1="0" x2="0" y2="1"><stop offset="0%" stop-color="#fde68a"/><stop offset="100%" stop-color="#fbbf24"/></linearGradient>
<linearGradient id="grad_MS_BinLog" x1="0" y1="0" x2="0" y2="1"><stop offset="0%" stop-color="#c4b5fd"/><stop offset="100%" stop-color="#8b5cf6"/></linearGradient>
<linearGradient id="grad_Quill_Unbounded_Queue__Log_Functions_" x1="0" y1="0" x2="0" y2="1"><stop offset="0%" stop-color="#67e8f9"/><stop offset="100%" stop-color="#06b6d4"/></linearGradient>
<linearGradient id="grad_Reckless" x1="0" y1="0" x2="0" y2="1"><stop offset="0%" stop-color="#fca5a5"/><stop offset="100%" stop-color="#ef4444"/></linearGradient>
<linearGradient id="grad_Iyengar_NanoLog" x1="0" y1="0" x2="0" y2="1"><stop offset="0%" stop-color="#a5b4fc"/><stop offset="100%" stop-color="#6366f1"/></linearGradient>
<linearGradient id="grad_spdlog" x1="0" y1="0" x2="0" y2="1"><stop offset="0%" stop-color="#7dd3fc"/><stop offset="100%" stop-color="#0ea5e9"/></linearGradient>
<linearGradient id="grad_Boost_Log" x1="0" y1="0" x2="0" y2="1"><stop offset="0%" stop-color="#a8a29e"/><stop offset="100%" stop-color="#78716c"/></linearGradient>
<linearGradient id="grad_g3log" x1="0" y1="0" x2="0" y2="1"><stop offset="0%" stop-color="#d8b4fe"/><stop offset="100%" stop-color="#a855f7"/></linearGradient>
<linearGradient id="grad_BqLog" x1="0" y1="0" x2="0" y2="1"><stop offset="0%" stop-color="#f0abfc"/><stop offset="100%" stop-color="#d946ef"/></linearGradient>
</defs>
<rect width="100%" height="100%" fill="#ffffff" rx="16"/>
<text x="80.0" y="36.0" font-family="-apple-system, BlinkMacSystemFont, Segoe UI, Roboto, Helvetica Neue, Arial, sans-serif" font-size="22" font-weight="700" text-anchor="start" fill="#0f172a" >Logging Large Strings — 4 Threads Logging Simultaneously</text>
<text x="80.0" y="56.0" font-family="-apple-system, BlinkMacSystemFont, Segoe UI, Roboto, Helvetica Neue, Arial, sans-serif" font-size="12" font-weight="400" text-anchor="start" fill="#64748b" >Latency percentiles in nanoseconds — lower is better</text>
<rect x="80" y="80" width="1060" height="650" rx="8" fill="#f8fafc" stroke="#e2e8f0" stroke-width="1"/>
<line x1="80" y1="730.0" x2="1140" y2="730.0" stroke="#e2e8f0" stroke-width="1"/>
<text x="70.0" y="734.0" font-family="-apple-system, BlinkMacSystemFont, Segoe UI, Roboto, Helvetica Neue, Arial, sans-serif" font-size="11" font-weight="400" text-anchor="end" fill="#94a3b8" >1</text>
<line x1="80" y1="567.5" x2="1140" y2="567.5" stroke="#e2e8f0" stroke-width="1"/>
<text x="70.0" y="571.5" font-family="-apple-system, BlinkMacSystemFont, Segoe UI, Roboto, Helvetica Neue, Arial, sans-serif" font-size="11" font-weight="400" text-anchor="end" fill="#94a3b8" >10</text>
<line x1="80" y1="405.0" x2="1140" y2="405.0" stroke="#e2e8f0" stroke-width="1"/>
<text x="70.0" y="409.0" font-family="-apple-system, BlinkMacSystemFont, Segoe UI, Roboto, Helvetica Neue, Arial, sans-serif" font-size="11" font-weight="400" text-anchor="end" fill="#94a3b8" >100</text>
<line x1="80" y1="242.5" x2="1140" y2="242.5" stroke="#e2e8f0" stroke-width="1"/>
<text x="70.0" y="246.5" font-family="-apple-system, BlinkMacSystemFont, Segoe UI, Roboto, Helvetica Neue, Arial, sans-serif" font-size="11" font-weight="400" text-anchor="end" fill="#94a3b8" >1k</text>
<line x1="80" y1="80.0" x2="1140" y2="80.0" stroke="#e2e8f0" stroke-width="1"/>
<text x="70.0" y="84.0" font-family="-apple-system, BlinkMacSystemFont, Segoe UI, Roboto, Helvetica Neue, Arial, sans-serif" font-size="11" font-weight="400" text-anchor="end" fill="#94a3b8" >10k</text>
<text x="168.3" y="752.0" font-family="-apple-system, BlinkMacSystemFont, Segoe UI, Roboto, Helvetica Neue, Arial, sans-serif" font-size="12" font-weight="500" text-anchor="middle" fill="#475569" >50th</text>
<rect x="95.3" y="574.9" width="9.1" height="155.1" rx="3" fill="url(#grad_Quill_Bounded_Dropping_Queue)" stroke="#15803d" stroke-width="0.8"/>
<rect x="106.7" y="583.2" width="9.1" height="146.8" rx="3" fill="url(#grad_Quill_Unbounded_Queue)" stroke="#15803d" stroke-width="0.8"/>
<rect x="118.1" y="567.5" width="9.1" height="162.5" rx="3" fill="url(#grad_fmtlog)"/>
<rect x="129.5" y="567.5" width="9.1" height="162.5" rx="3" fill="url(#grad_XTR)"/>
<rect x="140.9" y="534.3" width="9.1" height="195.7" rx="3" fill="url(#grad_PlatformLab_NanoLog)"/>
<rect x="152.4" y="485.4" width="9.1" height="244.6" rx="3" fill="url(#grad_MS_BinLog)"/>
<rect x="163.8" y="479.1" width="9.1" height="250.9" rx="3" fill="url(#grad_Quill_Unbounded_Queue__Log_Functions_)" stroke="#15803d" stroke-width="0.8"/>
<rect x="175.2" y="464.6" width="9.1" height="265.4" rx="3" fill="url(#grad_Reckless)"/>
<rect x="186.6" y="426.2" width="9.1" height="303.8" rx="3" fill="url(#grad_Iyengar_NanoLog)"/>
<rect x="198.0" y="289.3" width="9.1" height="440.7" rx="3" fill="url(#grad_spdlog)"/>
<rect x="209.4" y="220.6" width="9.1" height="509.4" rx="3" fill="url(#grad_Boost_Log)"/>
<rect x="220.8" y="255.1" width="9.1" height="474.9" rx="3" fill="url(#grad_g3log)"/>
<rect x="232.3" y="340.9" width="9.1" height="389.1" rx="3" fill="url(#grad_BqLog)"/>
<line x1="256.7" y1="80" x2="256.7" y2="730" stroke="#f1f5f9" stroke-width="1"/>
<text x="345.0" y="752.0" font-family="-apple-system, BlinkMacSystemFont, Segoe UI, Roboto, Helvetica Neue, Arial, sans-serif" font-size="12" font-weight="500" text-anchor="middle" fill="#475569" >75th</text>
<rect x="271.9" y="560.8" width="9.1" height="169.2" rx="3" fill="url(#grad_Quill_Bounded_Dropping_Queue)" stroke="#15803d" stroke-width="0.8"/>
<rect x="283.4" y="567.5" width="9.1" height="162.5" rx="3" fill="url(#grad_Quill_Unbounded_Queue)" stroke="#15803d" stroke-width="0.8"/>
<rect x="294.8" y="549.0" width="9.1" height="181.0" rx="3" fill="url(#grad_fmtlog)"/>
<rect x="306.2" y="560.8" width="9.1" height="169.2" rx="3" fill="url(#grad_XTR)"/>
<rect x="317.6" y="515.1" width="9.1" height="214.9" rx="3" fill="url(#grad_PlatformLab_NanoLog)"/>
<rect x="329.0" y="483.2" width="9.1" height="246.8" rx="3" fill="url(#grad_MS_BinLog)"/>
<rect x="340.4" y="471.5" width="9.1" height="258.5" rx="3" fill="url(#grad_Quill_Unbounded_Queue__Log_Functions_)" stroke="#15803d" stroke-width="0.8"/>
<rect x="351.8" y="419.9" width="9.1" height="310.1" rx="3" fill="url(#grad_Reckless)"/>
<rect x="363.3" y="419.0" width="9.1" height="311.0" rx="3" fill="url(#grad_Iyengar_NanoLog)"/>
<rect x="374.7" y="285.6" width="9.1" height="444.4" rx="3" fill="url(#grad_spdlog)"/>
<rect x="386.1" y="177.3" width="9.1" height="552.7" rx="3" fill="url(#grad_Boost_Log)"/>
<rect x="397.5" y="146.7" width="9.1" height="583.3" rx="3" fill="url(#grad_g3log)"/>
<rect x="408.9" y="333.6" width="9.1" height="396.4" rx="3" fill="url(#grad_BqLog)"/>
<line x1="433.3" y1="80" x2="433.3" y2="730" stroke="#f1f5f9" stroke-width="1"/>
<text x="521.7" y="752.0" font-family="-apple-system, BlinkMacSystemFont, Segoe UI, Roboto, Helvetica Neue, Arial, sans-serif" font-size="12" font-weight="500" text-anchor="middle" fill="#475569" >90th</text>
<rect x="448.6" y="543.8" width="9.1" height="186.2" rx="3" fill="url(#grad_Quill_Bounded_Dropping_Queue)" stroke="#15803d" stroke-width="0.8"/>
<rect x="460.0" y="549.0" width="9.1" height="181.0" rx="3" fill="url(#grad_Quill_Unbounded_Queue)" stroke="#15803d" stroke-width="0.8"/>
<rect x="471.4" y="538.9" width="9.1" height="191.1" rx="3" fill="url(#grad_fmtlog)"/>
<rect x="482.9" y="543.8" width="9.1" height="186.2" rx="3" fill="url(#grad_XTR)"/>
<rect x="494.3" y="511.9" width="9.1" height="218.1" rx="3" fill="url(#grad_PlatformLab_NanoLog)"/>
<rect x="505.7" y="479.1" width="9.1" height="250.9" rx="3" fill="url(#grad_MS_BinLog)"/>
<rect x="517.1" y="461.4" width="9.1" height="268.6" rx="3" fill="url(#grad_Quill_Unbounded_Queue__Log_Functions_)" stroke="#15803d" stroke-width="0.8"/>
<rect x="528.5" y="387.0" width="9.1" height="343.0" rx="3" fill="url(#grad_Reckless)"/>
<rect x="539.9" y="331.1" width="9.1" height="398.9" rx="3" fill="url(#grad_Iyengar_NanoLog)"/>
<rect x="551.3" y="282.2" width="9.1" height="447.8" rx="3" fill="url(#grad_spdlog)"/>
<rect x="562.8" y="166.6" width="9.1" height="563.4" rx="3" fill="url(#grad_Boost_Log)"/>
<rect x="574.2" y="130.3" width="9.1" height="599.7" rx="3" fill="url(#grad_g3log)"/>
<rect x="585.6" y="134.3" width="9.1" height="595.7" rx="3" fill="url(#grad_BqLog)"/>
<line x1="610.0" y1="80" x2="610.0" y2="730" stroke="#f1f5f9" stroke-width="1"/>
<text x="698.3" y="752.0" font-family="-apple-system, BlinkMacSystemFont, Segoe UI, Roboto, Helvetica Neue, Arial, sans-serif" font-size="12" font-weight="500" text-anchor="middle" fill="#475569" >95th</text>
<rect x="625.3" y="534.3" width="9.1" height="195.7" rx="3" fill="url(#grad_Quill_Bounded_Dropping_Queue)" stroke="#15803d" stroke-width="0.8"/>
<rect x="636.7" y="534.3" width="9.1" height="195.7" rx="3" fill="url(#grad_Quill_Unbounded_Queue)" stroke="#15803d" stroke-width="0.8"/>
<rect x="648.1" y="534.3" width="9.1" height="195.7" rx="3" fill="url(#grad_fmtlog)"/>
<rect x="659.5" y="530.1" width="9.1" height="199.9" rx="3" fill="url(#grad_XTR)"/>
<rect x="670.9" y="508.7" width="9.1" height="221.3" rx="3" fill="url(#grad_PlatformLab_NanoLog)"/>
<rect x="682.4" y="473.3" width="9.1" height="256.7" rx="3" fill="url(#grad_MS_BinLog)"/>
<rect x="693.8" y="455.3" width="9.1" height="274.7" rx="3" fill="url(#grad_Quill_Unbounded_Queue__Log_Functions_)" stroke="#15803d" stroke-width="0.8"/>
<rect x="705.2" y="380.8" width="9.1" height="349.2" rx="3" fill="url(#grad_Reckless)"/>
<rect x="716.6" y="327.7" width="9.1" height="402.3" rx="3" fill="url(#grad_Iyengar_NanoLog)"/>
<rect x="728.0" y="279.6" width="9.1" height="450.4" rx="3" fill="url(#grad_spdlog)"/>
<rect x="739.4" y="165.5" width="9.1" height="564.5" rx="3" fill="url(#grad_Boost_Log)"/>
<rect x="750.8" y="129.7" width="9.1" height="600.3" rx="3" fill="url(#grad_g3log)"/>
<rect x="762.3" y="128.1" width="9.1" height="601.9" rx="3" fill="url(#grad_BqLog)"/>
<line x1="786.7" y1="80" x2="786.7" y2="730" stroke="#f1f5f9" stroke-width="1"/>
<text x="875.0" y="752.0" font-family="-apple-system, BlinkMacSystemFont, Segoe UI, Roboto, Helvetica Neue, Arial, sans-serif" font-size="12" font-weight="500" text-anchor="middle" fill="#475569" >99th</text>
<rect x="801.9" y="515.1" width="9.1" height="214.9" rx="3" fill="url(#grad_Quill_Bounded_Dropping_Queue)" stroke="#15803d" stroke-width="0.8"/>
<rect x="813.4" y="515.1" width="9.1" height="214.9" rx="3" fill="url(#grad_Quill_Unbounded_Queue)" stroke="#15803d" stroke-width="0.8"/>
<rect x="824.8" y="522.2" width="9.1" height="207.8" rx="3" fill="url(#grad_fmtlog)"/>
<rect x="836.2" y="508.7" width="9.1" height="221.3" rx="3" fill="url(#grad_XTR)"/>
<rect x="847.6" y="492.4" width="9.1" height="237.6" rx="3" fill="url(#grad_PlatformLab_NanoLog)"/>
<rect x="859.0" y="338.9" width="9.1" height="391.1" rx="3" fill="url(#grad_MS_BinLog)"/>
<rect x="870.4" y="445.9" width="9.1" height="284.1" rx="3" fill="url(#grad_Quill_Unbounded_Queue__Log_Functions_)" stroke="#15803d" stroke-width="0.8"/>
<rect x="881.8" y="371.0" width="9.1" height="359.0" rx="3" fill="url(#grad_Reckless)"/>
<rect x="893.3" y="294.6" width="9.1" height="435.4" rx="3" fill="url(#grad_Iyengar_NanoLog)"/>
<rect x="904.7" y="273.3" width="9.1" height="456.7" rx="3" fill="url(#grad_spdlog)"/>
<rect x="916.1" y="150.4" width="9.1" height="579.6" rx="3" fill="url(#grad_Boost_Log)"/>
<rect x="927.5" y="115.6" width="9.1" height="614.4" rx="3" fill="url(#grad_g3log)"/>
<rect x="938.9" y="121.7" width="9.1" height="608.3" rx="3" fill="url(#grad_BqLog)"/>
<line x1="963.3" y1="80" x2="963.3" y2="730" stroke="#f1f5f9" stroke-width="1"/>
<text x="1051.7" y="752.0" font-family="-apple-system, BlinkMacSystemFont, Segoe UI, Roboto, Helvetica Neue, Arial, sans-serif" font-size="12" font-weight="500" text-anchor="middle" fill="#475569" >99.9th</text>
<rect x="978.6" y="494.8" width="9.1" height="235.2" rx="3" fill="url(#grad_Quill_Bounded_Dropping_Queue)" stroke="#15803d" stroke-width="0.8"/>
<rect x="990.0" y="497.4" width="9.1" height="232.6" rx="3" fill="url(#grad_Quill_Unbounded_Queue)" stroke="#15803d" stroke-width="0.8"/>
<rect x="1001.4" y="505.7" width="9.1" height="224.3" rx="3" fill="url(#grad_fmtlog)"/>
<rect x="1012.9" y="361.2" width="9.1" height="368.8" rx="3" fill="url(#grad_XTR)"/>
<rect x="1024.3" y="481.1" width="9.1" height="248.9" rx="3" fill="url(#grad_PlatformLab_NanoLog)"/>
<rect x="1035.7" y="299.0" width="9.1" height="431.0" rx="3" fill="url(#grad_MS_BinLog)"/>
<rect x="1047.1" y="432.2" width="9.1" height="297.8" rx="3" fill="url(#grad_Quill_Unbounded_Queue__Log_Functions_)" stroke="#15803d" stroke-width="0.8"/>
<rect x="1058.5" y="363.9" width="9.1" height="366.1" rx="3" fill="url(#grad_Reckless)"/>
<rect x="1069.9" y="205.3" width="9.1" height="524.7" rx="3" fill="url(#grad_Iyengar_NanoLog)"/>
<rect x="1081.3" y="246.9" width="9.1" height="483.1" rx="3" fill="url(#grad_spdlog)"/>
<rect x="1092.8" y="132.4" width="9.1" height="597.6" rx="3" fill="url(#grad_Boost_Log)"/>
<rect x="1104.2" y="101.3" width="9.1" height="628.7" rx="3" fill="url(#grad_g3log)"/>
<rect x="1115.6" y="88.7" width="9.1" height="641.3" rx="3" fill="url(#grad_BqLog)"/>
<text x="99.8" y="570.9" font-family="-apple-system, BlinkMacSystemFont, Segoe UI, Roboto, Helvetica Neue, Arial, sans-serif" font-size="8" font-weight="700" text-anchor="middle" fill="#15803d" >9</text>
<text x="111.3" y="579.2" font-family="-apple-system, BlinkMacSystemFont, Segoe UI, Roboto, Helvetica Neue, Arial, sans-serif" font-size="8" font-weight="700" text-anchor="middle" fill="#15803d" >8</text>
<text x="276.5" y="556.8" font-family="-apple-system, BlinkMacSystemFont, Segoe UI, Roboto, Helvetica Neue, Arial, sans-serif" font-size="8" font-weight="700" text-anchor="middle" fill="#15803d" >11</text>
<text x="287.9" y="563.5" font-family="-apple-system, BlinkMacSystemFont, Segoe UI, Roboto, Helvetica Neue, Arial, sans-serif" font-size="8" font-weight="700" text-anchor="middle" fill="#15803d" >10</text>
<text x="453.2" y="539.8" font-family="-apple-system, BlinkMacSystemFont, Segoe UI, Roboto, Helvetica Neue, Arial, sans-serif" font-size="8" font-weight="700" text-anchor="middle" fill="#15803d" >14</text>
<text x="464.6" y="545.0" font-family="-apple-system, BlinkMacSystemFont, Segoe UI, Roboto, Helvetica Neue, Arial, sans-serif" font-size="8" font-weight="700" text-anchor="middle" fill="#15803d" >13</text>
<text x="629.8" y="530.3" font-family="-apple-system, BlinkMacSystemFont, Segoe UI, Roboto, Helvetica Neue, Arial, sans-serif" font-size="8" font-weight="700" text-anchor="middle" fill="#15803d" >16</text>
<text x="641.3" y="530.3" font-family="-apple-system, BlinkMacSystemFont, Segoe UI, Roboto, Helvetica Neue, Arial, sans-serif" font-size="8" font-weight="700" text-anchor="middle" fill="#15803d" >16</text>
<text x="806.5" y="511.1" font-family="-apple-system, BlinkMacSystemFont, Segoe UI, Roboto, Helvetica Neue, Arial, sans-serif" font-size="8" font-weight="700" text-anchor="middle" fill="#15803d" >21</text>
<text x="817.9" y="511.1" font-family="-apple-system, BlinkMacSystemFont, Segoe UI, Roboto, Helvetica Neue, Arial, sans-serif" font-size="8" font-weight="700" text-anchor="middle" fill="#15803d" >21</text>
<text x="983.2" y="490.8" font-family="-apple-system, BlinkMacSystemFont, Segoe UI, Roboto, Helvetica Neue, Arial, sans-serif" font-size="8" font-weight="700" text-anchor="middle" fill="#15803d" >28</text>
<text x="994.6" y="493.4" font-family="-apple-system, BlinkMacSystemFont, Segoe UI, Roboto, Helvetica Neue, Arial, sans-serif" font-size="8" font-weight="700" text-anchor="middle" fill="#15803d" >27</text>
<text x="610.0" y="800.0" font-family="-apple-system, BlinkMacSystemFont, Segoe UI, Roboto, Helvetica Neue, Arial, sans-serif" font-size="12" font-weight="600" text-anchor="middle" fill="#475569" >Percentile</text>
<text x="22.0" y="405.0" font-family="-apple-system, BlinkMacSystemFont, Segoe UI, Roboto, Helvetica Neue, Arial, sans-serif" font-size="12" font-weight="600" text-anchor="middle" fill="#475569" transform="rotate(-90 22 405.0)">Latency (ns, log scale)</text>
<rect x="1164.0" y="80.0" width="290" height="350" rx="12" fill="#f8fafc" stroke="#e2e8f0" stroke-width="1"/>
<text x="1182.0" y="106.0" font-family="-apple-system, BlinkMacSystemFont, Segoe UI, Roboto, Helvetica Neue, Arial, sans-serif" font-size="13" font-weight="700" text-anchor="start" fill="#334155" >Libraries</text>
<rect x="1182.0" y="121.0" width="12" height="12" rx="3" fill="#16a34a" stroke="#15803d" stroke-width="1.5"/>
<text x="1202.0" y="130.0" font-family="-apple-system, BlinkMacSystemFont, Segoe UI, Roboto, Helvetica Neue, Arial, sans-serif" font-size="11" font-weight="600" text-anchor="start" fill="#15803d" >Quill Bounded Dropping</text>
<text x="1202.0" y="144.0" font-family="-apple-system, BlinkMacSystemFont, Segoe UI, Roboto, Helvetica Neue, Arial, sans-serif" font-size="11" font-weight="600" text-anchor="start" fill="#15803d" >Queue</text>
<rect x="1182.0" y="155.0" width="12" height="12" rx="3" fill="#22c55e" stroke="#15803d" stroke-width="1.5"/>
<text x="1202.0" y="164.0" font-family="-apple-system, BlinkMacSystemFont, Segoe UI, Roboto, Helvetica Neue, Arial, sans-serif" font-size="11" font-weight="600" text-anchor="start" fill="#15803d" >Quill Unbounded Queue</text>
<rect x="1182.0" y="177.0" width="12" height="12" rx="3" fill="#f97316"/>
<text x="1202.0" y="186.0" font-family="-apple-system, BlinkMacSystemFont, Segoe UI, Roboto, Helvetica Neue, Arial, sans-serif" font-size="11" font-weight="400" text-anchor="start" fill="#334155" >fmtlog</text>
<rect x="1182.0" y="199.0" width="12" height="12" rx="3" fill="#eab308"/>
<text x="1202.0" y="208.0" font-family="-apple-system, BlinkMacSystemFont, Segoe UI, Roboto, Helvetica Neue, Arial, sans-serif" font-size="11" font-weight="400" text-anchor="start" fill="#334155" >XTR</text>
<rect x="1182.0" y="221.0" width="12" height="12" rx="3" fill="#fbbf24"/>
<text x="1202.0" y="230.0" font-family="-apple-system, BlinkMacSystemFont, Segoe UI, Roboto, Helvetica Neue, Arial, sans-serif" font-size="11" font-weight="400" text-anchor="start" fill="#334155" >PlatformLab NanoLog</text>
<rect x="1182.0" y="243.0" width="12" height="12" rx="3" fill="#8b5cf6"/>
<text x="1202.0" y="252.0" font-family="-apple-system, BlinkMacSystemFont, Segoe UI, Roboto, Helvetica Neue, Arial, sans-serif" font-size="11" font-weight="400" text-anchor="start" fill="#334155" >MS BinLog</text>
<rect x="1182.0" y="265.0" width="12" height="12" rx="3" fill="#06b6d4" stroke="#15803d" stroke-width="1.5"/>
<text x="1202.0" y="274.0" font-family="-apple-system, BlinkMacSystemFont, Segoe UI, Roboto, Helvetica Neue, Arial, sans-serif" font-size="11" font-weight="600" text-anchor="start" fill="#15803d" >Quill Unbounded Queue</text>
<text x="1202.0" y="288.0" font-family="-apple-system, BlinkMacSystemFont, Segoe UI, Roboto, Helvetica Neue, Arial, sans-serif" font-size="11" font-weight="600" text-anchor="start" fill="#15803d" >(Log Functions)</text>
<rect x="1182.0" y="299.0" width="12" height="12" rx="3" fill="#ef4444"/>
<text x="1202.0" y="308.0" font-family="-apple-system, BlinkMacSystemFont, Segoe UI, Roboto, Helvetica Neue, Arial, sans-serif" font-size="11" font-weight="400" text-anchor="start" fill="#334155" >Reckless</text>
<rect x="1182.0" y="321.0" width="12" height="12" rx="3" fill="#6366f1"/>
<text x="1202.0" y="330.0" font-family="-apple-system, BlinkMacSystemFont, Segoe UI, Roboto, Helvetica Neue, Arial, sans-serif" font-size="11" font-weight="400" text-anchor="start" fill="#334155" >Iyengar NanoLog</text>
<rect x="1182.0" y="343.0" width="12" height="12" rx="3" fill="#0ea5e9"/>
<text x="1202.0" y="352.0" font-family="-apple-system, BlinkMacSystemFont, Segoe UI, Roboto, Helvetica Neue, Arial, sans-serif" font-size="11" font-weight="400" text-anchor="start" fill="#334155" >spdlog</text>
<rect x="1182.0" y="365.0" width="12" height="12" rx="3" fill="#78716c"/>
<text x="1202.0" y="374.0" font-family="-apple-system, BlinkMacSystemFont, Segoe UI, Roboto, Helvetica Neue, Arial, sans-serif" font-size="11" font-weight="400" text-anchor="start" fill="#334155" >Boost.Log</text>
<rect x="1182.0" y="387.0" width="12" height="12" rx="3" fill="#a855f7"/>
<text x="1202.0" y="396.0" font-family="-apple-system, BlinkMacSystemFont, Segoe UI, Roboto, Helvetica Neue, Arial, sans-serif" font-size="11" font-weight="400" text-anchor="start" fill="#334155" >g3log</text>
<rect x="1182.0" y="409.0" width="12" height="12" rx="3" fill="#d946ef"/>
<text x="1202.0" y="418.0" font-family="-apple-system, BlinkMacSystemFont, Segoe UI, Roboto, Helvetica Neue, Arial, sans-serif" font-size="11" font-weight="400" text-anchor="start" fill="#334155" >BqLog</text>
</svg>